<?xml version="1.0" encoding="utf-8"?>
<!-- Generator: Adobe Illustrator 16.0.0, SVG Export Plug-In . SVG Version: 6.00 Build 0)  -->
<!DOCTYPE svg PUBLIC "-//W3C//DTD SVG 1.1//EN" "http://www.w3.org/Graphics/SVG/1.1/DTD/svg11.dtd">
<svg version="1.1" id="Layer_67" xmlns="http://www.w3.org/2000/svg" xmlns:xlink="http://www.w3.org/1999/xlink" x="0px" y="0px"
	 width="51.927px" height="46.898px" viewBox="-0.709 -9.052 51.927 46.898" enable-background="new -0.709 -9.052 51.927 46.898"
	 xml:space="preserve">
<path fill="#FFFFFF" d="M42.302,37.847h-1.926c-0.244,0-0.471-0.126-0.601-0.333c-0.419-0.668-0.35-1.324-0.262-1.759
	c0.128-0.632,0.191-1.326,0.204-2.252c0.034-2.308,0.263-4.625,0.484-6.867l0.029-0.299c-0.398,0.289-0.797,0.579-1.194,0.87
	l-1.074,0.783c-0.786,0.568-1.402,1.343-1.998,2.092c-0.141,0.19-0.333,0.451-0.635,0.588c-0.03,0.125-0.076,0.254-0.146,0.38
	c0.005,0.009,0.009,0.019,0.014,0.027c0.129,0.271,0.289,0.608,0.254,1.048c0.018,0.237-0.126,0.473-0.206,0.601
	c0.011,0.04,0.026,0.104,0.04,0.169c0.11,0.5,0.295,1.336-0.508,2.008c-0.053,0.043-0.11,0.079-0.172,0.105
	c-0.596,0.26-1.219,0.124-1.727-0.381c-0.83-0.825-1.623-1.777-1.805-3.137c-0.039-0.292-0.164-0.599-0.406-0.995
	c-0.236-0.387-0.387-0.783-0.531-1.166l-0.077-0.203c-0.27-0.693-0.048-1.343,0.593-1.736c0.102-0.062,0.196-0.13,0.292-0.197
	c0.221-0.157,0.481-0.342,0.804-0.469c0.438-1.079,1.285-1.77,2.06-2.337c0.791-0.58,1.603-1.134,2.414-1.687l0.482-0.328
	c0.399-0.272,0.778-0.465,1.16-0.587c0.189-0.061,0.371-0.16,0.597-0.331l0.009-0.04c0.147-0.668,0.275-1.245,0.106-1.85
	c-0.228-0.818-0.319-1.649-0.383-2.465c-0.063,0.062-0.133,0.121-0.209,0.177c-0.205,0.153-0.478,0.18-0.708,0.077
	c-0.119,0.066-0.259,0.116-0.425,0.134c-0.36,0.041-0.703-0.211-0.771-0.576c-0.011-0.058-0.017-0.115-0.021-0.169
	c-0.167-0.088-0.299-0.243-0.353-0.438c-0.068-0.245-0.066-0.465-0.027-0.661c-0.101-0.074-0.182-0.175-0.232-0.295
	c-0.24-0.477-0.02-0.784,0.085-0.895c0.325-0.305,0.559-0.666,0.806-1.047c0.258-0.4,0.524-0.813,0.895-1.185
	c0.084-0.084,0.127-0.22,0.183-0.458c0.324-1.38,0.474-2.813,0.588-4.048c0.041-0.444-0.078-0.929-0.204-1.443l-0.103-0.43
	c-0.553-2.478,0.344-4.59,1.294-6.331c0.424-0.773,1.104-1.414,2.021-1.904c0.062-0.034,0.104-0.056,0.157-0.257
	c-0.635-0.472-1.035-1.208-1.101-2.058c-0.055-0.708-0.157-2.026,0.735-3.048c0.746-0.836,1.81-1.294,3.002-1.294
	c1.155,0,2.371,0.439,3.337,1.206c0.037,0.03,0.071,0.062,0.102,0.099c0.519,0.616,0.596,1.309,0.236,1.923
	c0.057,0.144,0.112,0.286,0.162,0.431c0.12,0.351,0.285,0.83,0.128,1.371c-0.187,0.649-0.131,0.84,0.075,1.044
	c0.145,0.143,0.22,0.34,0.209,0.543c-0.012,0.203-0.109,0.391-0.269,0.516c-0.547,0.432-0.825,0.83-0.903,1.293
	c-0.035,0.208-0.161,0.389-0.344,0.495c-0.511,0.297-1.137,0.15-1.474,0.01c-0.056-0.023-0.11-0.046-0.166-0.064
	c-0.152-0.047-0.245-0.066-0.3-0.073c-0.003,0.005-0.006,0.01-0.009,0.016c1.162,1.932,1.664,4.199,1.492,6.745
	c-0.062,0.907,0.109,1.579,0.571,2.245c0.225,0.324,0.429,0.66,0.634,0.996c0.375,0.617,0.729,1.199,1.196,1.683
	c0.199,0.206,0.373,0.34,0.566,0.437c0.837,0.419,1.402,1.111,1.902,1.721c0.378,0.473,0.262,0.878,0.161,1.082
	c-0.073,0.149-0.197,0.268-0.35,0.335c0.095,0.228,0.175,0.474,0.205,0.745c0.013,0.114-0.002,0.229-0.044,0.335
	c-0.054,0.14-0.134,0.258-0.234,0.35c-0.006,0.214-0.082,0.399-0.225,0.56c-0.036,0.041-0.076,0.076-0.119,0.107
	c-0.12,0.086-0.357,0.165-0.505,0.165c-0.174,0-0.338-0.054-0.474-0.15c-0.15,0.048-0.312,0.044-0.463-0.013
	c-0.234-0.088-0.413-0.214-0.551-0.354c-0.163,0.106-0.363,0.143-0.561,0.091c-0.278-0.071-0.486-0.304-0.526-0.589
	c-0.074-0.538-0.285-1.022-0.509-1.535c-0.189-0.434-0.384-0.88-0.509-1.383c-0.135-0.11-0.264-0.22-0.386-0.331
	c-0.002,0.18-0.004,0.361-0.005,0.542l-0.008,0.743l0.001,0.112c0.005,0.204,0.015,0.602-0.229,0.931
	c0.114,1.191,0.102,2.428-0.039,3.953c-0.084,0.907-0.021,1.815,0.046,2.777l0.037,0.543c0.051,0.759,0.039,1.391-0.035,1.984
	c-0.07,0.57-0.084,1.045-0.042,1.492c0.146,1.533,0.068,3.063-0.006,4.544c-0.031,0.617-0.062,1.235-0.078,1.854
	c-0.003,0.14-0.002,0.28-0.001,0.427c0.088,0.094,0.192,0.204,0.288,0.339c0.2,0.007,0.465,0.021,0.742,0.153
	c0.31,0.123,0.463,0.363,0.545,0.505c0.112,0.034,0.231,0.072,0.347,0.119c0.576,0.234,0.96,0.699,1.026,1.243
	c0.062,0.506-0.168,1.004-0.617,1.332c-0.812,0.594-1.722,1.144-2.859,1.144c-0.301,0-0.607-0.04-0.911-0.119
	c-0.455-0.116-0.968-0.059-1.477,0.17C42.501,37.825,42.401,37.847,42.302,37.847z M40.866,36.429h1.291
	c0.758-0.309,1.545-0.375,2.267-0.186c0.911,0.232,1.674-0.137,2.579-0.798c0.043-0.021,0.002-0.073-0.105-0.117
	c-0.098-0.039-0.2-0.069-0.295-0.097l-0.147-0.046c-0.066-0.021-0.129-0.052-0.186-0.091c-0.202-0.14-0.312-0.312-0.381-0.433
	c-0.046-0.005-0.116-0.008-0.167-0.01c-0.158-0.006-0.354-0.013-0.572-0.076c-0.226-0.066-0.404-0.24-0.477-0.464
	c-0.017-0.051-0.12-0.161-0.196-0.242c-0.083-0.087-0.165-0.175-0.236-0.267c-0.096-0.125-0.148-0.277-0.148-0.435l-0.001-0.25
	c-0.001-0.167-0.003-0.325,0.002-0.483c0.015-0.629,0.047-1.259,0.078-1.889c0.076-1.495,0.147-2.908,0.012-4.339
	c-0.052-0.545-0.036-1.134,0.046-1.801c0.062-0.504,0.071-1.049,0.027-1.718l-0.036-0.536c-0.068-0.976-0.139-1.984-0.045-3.006
	c0.146-1.582,0.147-2.824,0.003-4.029c-0.029-0.248,0.073-0.488,0.262-0.638c-0.001-0.018-0.001-0.035-0.002-0.053l-0.002-0.163
	l0.008-0.739c0.006-0.58,0.012-1.161,0.023-1.741c-0.065-0.698,0.38-0.974,0.65-1.077c0.305-0.118,0.653-0.007,0.838,0.265
	c0.322,0.477,0.771,0.934,1.369,1.398c0.138,0.106,0.231,0.259,0.263,0.43c0.086,0.457,0.273,0.888,0.473,1.345
	c0.038,0.086,0.075,0.173,0.113,0.261c0.186-0.011,0.37,0.055,0.51,0.18c0.038,0.035,0.074,0.07,0.107,0.106
	c0.038-0.011,0.077-0.019,0.116-0.023c0.028-0.05,0.061-0.095,0.099-0.136c-0.062-0.172-0.111-0.357-0.139-0.556
	c-0.024-0.167,0.013-0.334,0.1-0.474c-0.172-0.148-0.352-0.276-0.549-0.375c-0.338-0.169-0.641-0.398-0.95-0.719
	c-0.578-0.597-0.99-1.275-1.389-1.932c-0.19-0.312-0.38-0.625-0.588-0.925c-0.643-0.926-0.903-1.927-0.82-3.148
	c0.162-2.408-0.317-4.435-1.467-6.196c-0.12-0.185-0.148-0.416-0.074-0.624c0.134-0.379,0.448-1.267,1.421-1.267
	c0.219,0,0.456,0.043,0.77,0.14c0.097,0.03,0.193,0.069,0.289,0.108c0.009,0.004,0.018,0.007,0.027,0.011
	c0.157-0.417,0.413-0.803,0.776-1.171c-0.321-0.713-0.115-1.433-0.003-1.825c0.033-0.112-0.038-0.317-0.105-0.516
	c-0.058-0.166-0.124-0.331-0.191-0.499l-0.096-0.243c-0.1-0.256-0.043-0.547,0.147-0.747c0.139-0.145,0.172-0.192,0.04-0.362
	c-0.709-0.543-1.579-0.853-2.397-0.853c-0.554,0-1.339,0.141-1.938,0.814c-0.414,0.475-0.456,1.094-0.386,2.002
	c0.021,0.256,0.134,0.88,0.771,1.168c0.292,0.133,0.458,0.444,0.406,0.76c-0.133,0.81-0.272,1.37-0.979,1.746
	c-0.67,0.358-1.156,0.807-1.445,1.334c-0.864,1.584-1.604,3.328-1.154,5.341l0.096,0.401c0.142,0.577,0.302,1.23,0.24,1.911
	c-0.119,1.283-0.275,2.773-0.62,4.241c-0.084,0.363-0.204,0.782-0.56,1.137c-0.263,0.264-0.479,0.599-0.707,0.952
	c-0.006,0.009-0.012,0.019-0.018,0.027c0.109,0.143,0.16,0.323,0.142,0.504c-0.007,0.061-0.017,0.12-0.03,0.177
	c0.031,0.027,0.06,0.056,0.085,0.087c0.094-0.018,0.188-0.016,0.277,0.004c0.071-0.081,0.15-0.159,0.239-0.233
	c0.149-0.125,0.348-0.185,0.54-0.16c0.195,0.024,0.371,0.127,0.486,0.286c0.273,0.374,0.277,0.762,0.28,0.994l0.033,0.544
	c0.068,0.977,0.134,1.9,0.378,2.779c0.265,0.946,0.077,1.791-0.088,2.537l-0.061,0.276c-0.033,0.154-0.117,0.294-0.238,0.396
	c-0.326,0.272-0.73,0.573-1.26,0.742c-0.248,0.079-0.507,0.212-0.792,0.406l-0.483,0.33c-0.798,0.543-1.596,1.087-2.374,1.657
	c-0.859,0.63-1.438,1.18-1.668,1.97c-0.076,0.259-0.291,0.452-0.557,0.5c-0.218,0.038-0.412,0.176-0.657,0.35
	c-0.123,0.087-0.245,0.173-0.372,0.25l0.071,0.229c0.127,0.336,0.247,0.653,0.414,0.927c0.219,0.358,0.517,0.905,0.602,1.549
	c0.119,0.887,0.646,1.568,1.4,2.319c0.033,0.033,0.061,0.055,0.081,0.069c0.021-0.078,0.004-0.208-0.059-0.492
	c-0.034-0.154-0.066-0.306-0.083-0.454c0.004-0.401,0.136-0.626,0.212-0.75c-0.018-0.109-0.066-0.211-0.113-0.311
	c-0.088-0.185-0.174-0.376-0.228-0.587c-0.067-0.271,0.029-0.556,0.247-0.729c0.006-0.005,0.038-0.065,0.021-0.314
	c-0.017-0.241,0.092-0.475,0.286-0.618c0.154-0.112,0.344-0.159,0.529-0.13l0.08-0.106c0.626-0.787,1.334-1.677,2.276-2.358
	l1.07-0.781c0.625-0.455,1.249-0.911,1.876-1.362c0.195-0.166,0.458-0.393,0.868-0.393c0.047,0,0.174,0.013,0.221,0.022
	c0.242,0.049,0.441,0.222,0.525,0.455c0.124,0.346,0.072,0.655,0.038,0.861l-0.117,1.13c-0.218,2.212-0.444,4.5-0.477,6.749
	c-0.016,1.016-0.087,1.791-0.233,2.512C40.869,36.199,40.859,36.325,40.866,36.429z"/>
<path fill="#FFFFFF" d="M26.023,37.847h-4.815c-0.196,0-0.383-0.081-0.517-0.225c-0.135-0.143-0.203-0.335-0.19-0.53
	c0.003-0.042-0.022-0.142-0.043-0.229c-0.057-0.231-0.134-0.549-0.057-0.934c0.026-0.131,0.089-0.252,0.181-0.349
	c0.261-0.274,0.296-0.73,0.336-1.259l0.016-0.191c0.044-0.529,0.025-1.063,0.006-1.63c-0.017-0.478-0.032-0.954-0.013-1.432
	c0.022-0.539,0.092-1.157,0.408-1.753c-0.1-0.398-0.27-0.784-0.513-1.163c-0.223,0.234-0.438,0.503-0.658,0.814
	c-0.387,0.546-0.875,1.143-1.795,1.341c-0.103,0.021-0.258,0.121-0.409,0.218c-0.245,0.157-0.549,0.354-0.933,0.436
	c-0.66,0.144-1.295,0.475-1.91,0.795c-0.174,0.09-0.291,0.166-0.376,0.25l0.542,1.98c0.035,0.129,0.033,0.266-0.006,0.394
	c-0.167,0.55-0.528,0.898-1.104,1.066c-0.102,0.028-0.211,0.033-0.314,0.019c-0.746-0.124-1.344-0.581-1.829-1.397
	c-0.36-0.604-0.669-1.101-1.09-1.509c-0.597-0.576-0.659-1.199-0.605-1.621c0.017-0.13,0.068-0.253,0.15-0.354
	c0.28-0.352,0.589-0.741,1.094-0.959c0.294-0.115,0.579-0.081,0.767-0.028c0.3-0.201,0.578-0.382,0.866-0.548
	c0.371-0.212,0.755-0.479,1.21-0.84c0.78-0.62,1.568-1.194,2.591-1.427c0.012-0.052,0.022-0.108,0.032-0.167
	c0.011-0.061,0.022-0.12,0.035-0.179c-0.248-0.954,0.013-1.812,0.383-2.604c-0.242-0.776-0.31-1.549-0.199-2.267
	c-0.147-0.09-0.352-0.225-0.51-0.471c-0.04-0.062-0.069-0.131-0.088-0.202c-0.149-0.569-0.083-1.183,0.202-1.875
	c0.113-0.274,0.174-0.581,0.191-0.964c0.07-1.521,0.316-2.989,0.731-4.363c0.306-1.013,0.765-2.124,1.837-2.859
	c-0.026-0.19-0.072-0.38-0.14-0.575c-0.037-0.018-0.081-0.038-0.125-0.057c-0.109-0.047-0.215-0.095-0.315-0.155
	c-1.198-0.714-1.966-1.861-2.052-3.069c-0.086-1.205,0.499-2.38,1.648-3.31c0.292-0.237,0.657-0.388,1.057-0.435
	c1.664-0.2,2.982,0.019,4.161,0.683c0.683,0.384,1.043,0.917,1.069,1.584c0.004,0.1-0.014,0.2-0.051,0.293
	c-0.387,0.958-0.338,1.441,0.192,1.913c0.151,0.135,0.237,0.328,0.237,0.531c-0.001,0.203-0.088,0.396-0.24,0.53
	c-0.018,0.018-0.059,0.094-0.086,0.145c-0.052,0.097-0.123,0.23-0.232,0.361c-0.006,0.199-0.064,0.37-0.109,0.481
	c0.086,0.222,0.059,0.48-0.092,0.682c-0.438,0.59-1.007,0.639-1.383,0.647c0.007,0.022,0.016,0.046,0.026,0.073
	c0.616,1.521,1.062,3.151,1.357,4.974c0.581,0.591,1.094,1.237,1.591,1.864c0.222,0.279,0.443,0.559,0.673,0.835
	c0.801,0.061,1.424,0.341,1.896,0.854c0.23,0.25,0.252,0.628,0.049,0.902c-0.06,0.081-0.127,0.151-0.199,0.209
	c0.082,0.158,0.146,0.345,0.157,0.566c0.009,0.187-0.056,0.369-0.181,0.508c-0.05,0.057-0.103,0.104-0.154,0.142
	c-0.01,0.077-0.027,0.158-0.058,0.243c-0.105,0.297-0.405,0.489-0.709,0.471c-0.03-0.001-0.06-0.004-0.088-0.008
	c-0.107,0.108-0.248,0.181-0.403,0.203c-0.033,0.005-0.132,0.013-0.166,0.013c-0.146,0-0.272-0.027-0.381-0.072
	c-0.045,0.021-0.092,0.036-0.14,0.047c-0.053,0.012-0.154,0.021-0.177,0.02c-0.243,0-0.952-0.013-1.482-2.298
	c-0.027-0.028-0.055-0.056-0.081-0.084c-0.019,0.291-0.05,0.585-0.127,0.87c-0.012,0.043-0.027,0.085-0.047,0.125
	c-0.097,0.198-0.224,0.329-0.345,0.419c0.133,0.468,0.289,0.937,0.453,1.425c0.394,1.176,0.801,2.392,0.876,3.708
	c0.004,0.081-0.005,0.162-0.028,0.24c-0.07,0.24-0.21,0.394-0.34,0.493c0.38,1.55,0.059,3.017-0.351,4.375
	c-0.219,0.728-0.337,1.521-0.373,2.529l1.872,0.681c0.131,0.048,0.244,0.133,0.327,0.245c0.425,0.575,0.428,1.202,0.008,1.865
	C26.492,37.722,26.267,37.847,26.023,37.847z M21.812,36.429h3.138l-1.496-0.544c-0.282-0.103-0.47-0.372-0.467-0.673
	c0.014-1.391,0.15-2.446,0.444-3.423c0.42-1.394,0.631-2.568,0.295-3.767c-0.044-0.153-0.052-0.299-0.056-0.386
	c-0.004-0.075-0.001-0.213,0.019-0.285c0.073-0.271,0.23-0.437,0.373-0.539c-0.11-0.998-0.435-1.965-0.775-2.982
	c-0.219-0.653-0.444-1.328-0.61-2.018c-0.045-0.184-0.014-0.378,0.086-0.539c0.147-0.237,0.342-0.352,0.479-0.417
	c0.034-0.213,0.046-0.46,0.058-0.719c0.017-0.377,0.036-0.805,0.131-1.251c0.05-0.236,0.217-0.431,0.442-0.516
	c0.225-0.084,0.479-0.05,0.673,0.093c0.169,0.125,0.323,0.255,0.467,0.387c-0.534-0.673-1.04-1.309-1.621-1.875
	c-0.109-0.107-0.182-0.248-0.205-0.399c-0.278-1.807-0.706-3.406-1.308-4.89c-0.301-0.747-0.103-1.303,0.117-1.639
	c0.083-0.127,0.206-0.225,0.35-0.277c0.265-0.097,0.518-0.101,0.72-0.104c0.05-0.001,0.092-0.002,0.126-0.003
	c0.017-0.114,0.051-0.234,0.101-0.359c-0.072-0.151-0.091-0.325-0.046-0.492c0.063-0.234,0.242-0.42,0.473-0.492
	c-0.814-1.079-0.462-2.262-0.226-2.878c-0.031-0.076-0.112-0.173-0.327-0.294c-0.919-0.519-2.064-0.659-3.297-0.511
	c-0.134,0.016-0.248,0.06-0.333,0.128c-0.791,0.64-1.18,1.369-1.127,2.108c0.054,0.746,0.564,1.476,1.365,1.953
	c0.048,0.029,0.1,0.049,0.152,0.071c0.188,0.082,0.447,0.194,0.678,0.445c0.057,0.062,0.103,0.134,0.134,0.212
	c0.228,0.559,0.336,1.105,0.331,1.667c-0.003,0.261-0.148,0.5-0.38,0.621c-0.898,0.471-1.271,1.363-1.542,2.256
	c-0.381,1.262-0.607,2.615-0.671,4.02c-0.026,0.55-0.12,1.007-0.296,1.438c-0.129,0.313-0.186,0.578-0.17,0.803
	c0.007,0.004,0.014,0.008,0.021,0.012c0.178,0.108,0.477,0.288,0.651,0.684c0.064,0.146,0.078,0.308,0.038,0.462
	c-0.162,0.635-0.102,1.367,0.174,2.118c0.067,0.184,0.056,0.387-0.031,0.562c-0.396,0.791-0.584,1.371-0.375,1.998
	c0.047,0.14,0.049,0.291,0.006,0.432c-0.023,0.077-0.037,0.159-0.051,0.24c-0.043,0.235-0.096,0.528-0.272,0.821
	c-0.057,0.096-0.137,0.177-0.231,0.235c-0.075,0.059-0.224,0.174-0.445,0.208c-0.809,0.134-1.47,0.616-2.188,1.187
	c-0.513,0.408-0.954,0.713-1.388,0.96c-0.333,0.191-0.65,0.406-0.95,0.608c-0.11,0.074-0.308,0.163-0.44,0.168
	c-0.219-0.023-0.383-0.041-0.49-0.072c-0.096,0.066-0.189,0.17-0.289,0.293c0.02,0.079,0.071,0.163,0.178,0.266
	c0.547,0.529,0.923,1.13,1.324,1.804c0.208,0.349,0.395,0.527,0.559,0.622l-0.521-1.904c-0.047-0.171-0.028-0.353,0.053-0.51
	c0.291-0.567,0.732-0.852,1.125-1.055c0.695-0.362,1.417-0.737,2.263-0.921c0.134-0.029,0.296-0.133,0.467-0.243
	c0.246-0.158,0.524-0.337,0.879-0.412c0.39-0.084,0.604-0.306,0.934-0.772c0.47-0.667,0.938-1.176,1.469-1.6
	c0.298-0.238,0.73-0.198,0.979,0.092c0.727,0.845,1.161,1.721,1.328,2.678c0.031,0.181-0.009,0.366-0.11,0.519
	c-0.244,0.361-0.309,0.777-0.33,1.291c-0.019,0.44-0.002,0.882,0.013,1.323c0.021,0.582,0.041,1.184-0.01,1.796l-0.014,0.183
	c-0.048,0.619-0.101,1.312-0.539,1.908C21.798,36.365,21.804,36.396,21.812,36.429z M26.121,20.14
	c0.07,0.326,0.148,0.603,0.223,0.826c0.005,0,0.008-0.001,0.013,0c0.066-0.077,0.147-0.138,0.237-0.18
	c0.028-0.094,0.074-0.181,0.139-0.256c-0.021-0.082-0.035-0.168-0.041-0.261c0-0.01,0-0.02-0.001-0.03
	C26.51,20.228,26.292,20.237,26.121,20.14z"/>
<path fill="#FFFFFF" d="M6.324,37.847c-0.006,0-0.013,0-0.02,0H3.828c-0.191,0-0.375-0.078-0.508-0.215S3.115,37.31,3.12,37.118
	c0.003-0.124,0.013-0.248,0.023-0.371c0.008-0.106,0.016-0.199,0.018-0.282c-0.003,0.012-0.006,0.023-0.01,0.035
	c-0.106,0.345-0.385,0.761-1.111,0.786c-0.521,0.021-1.052,0.035-1.578,0.001C0.024,37.261-0.359,37.03-0.56,36.67
	c-0.207-0.371-0.199-0.818,0.021-1.229c0.238-0.443,0.293-0.946,0.318-1.423c0.047-0.894,0.432-1.575,1.145-2.028v-0.505
	c-0.668-0.644-0.952-1.513-0.817-2.503c-0.001,0-0.002-0.001-0.004-0.002c-0.189-0.111-0.583-0.342-0.672-0.88
	c-0.03-0.181,0.011-0.366,0.115-0.518c0.162-0.235,0.466-0.516,1.001-0.532c0.064-0.587,0.266-1.082,0.47-1.543
	c0.185-0.414,0.418-0.775,0.645-1.125c0.292-0.45,0.567-0.876,0.684-1.344c0.098-0.394,0.285-0.733,0.453-1.035
	c-0.022-0.013-0.047-0.027-0.076-0.044c-1.2-0.667-1.666-1.344-1.918-2.785c-0.033-0.189,0.012-0.384,0.125-0.54
	c0.12-0.165,0.16-0.427,0.207-0.731c0.063-0.415,0.143-0.93,0.472-1.409c0.075-0.108,0.178-0.194,0.298-0.247
	c0.183-0.08,0.46-0.07,0.593-0.033c0.561-0.226,1.215-0.457,1.917-0.551c0.258-0.035,0.519-0.047,0.779-0.058
	c0.343-0.014,0.666-0.028,0.96-0.107c0.732-0.2,1.461,0.213,1.797,1.022c0.169,0.405,0.178,0.808,0.162,1.182
	c0,0.005,0,0.01,0,0.015c0.147,0.109,0.263,0.273,0.295,0.448c0.04,0.22,0.005,0.458-0.146,0.623
	c-0.035,0.038-0.046,0.05-0.007,0.317c0.013,0.09,0.028,0.19,0.034,0.299c0.078,0.061,0.159,0.143,0.225,0.256
	c0.023,0.04,0.042,0.082,0.057,0.125c0.229,0.667,0.053,1.236-0.089,1.694c-0.034,0.107-0.067,0.216-0.095,0.326
	c-0.032,0.131-0.102,0.25-0.2,0.344c-0.354,0.336-0.777,0.449-1.118,0.54c-0.109,0.028-0.199,0.054-0.271,0.077
	c0.555,1.071,0.534,2.23,0.514,3.269c-0.014,0.77-0.226,1.346-0.648,1.763c-0.526,0.52-0.868,1.023-1.081,1.604
	c0.283,0.548,0.402,1.133,0.519,1.701c0.089,0.438,0.174,0.852,0.328,1.227c0.183,0.444,0.097,0.95-0.224,1.319
	c-0.091,0.103-0.13,0.248-0.15,0.539c-0.027,0.421-0.114,0.828-0.258,1.209c-0.067,0.176-0.092,0.343-0.075,0.507
	c0.1,0.073,0.218,0.142,0.348,0.218c0.191,0.111,0.405,0.235,0.607,0.404c0.21,0.123,0.351,0.352,0.351,0.612
	C7.032,37.529,6.715,37.847,6.324,37.847z M2.297,35.272c0.024,0.016,0.051,0.031,0.079,0.048c0.181,0.107,0.399,0.237,0.585,0.447
	c-0.166-0.369-0.264-0.737-0.295-1.098c-0.031,0.051-0.062,0.102-0.092,0.152C2.482,34.974,2.392,35.125,2.297,35.272z
	 M3.539,31.935c0.102,0,0.204,0.022,0.299,0.066c0.146,0.068,0.535,0.249,0.721,0.748c0.087,0.234,0.044,0.498-0.113,0.693
	c-0.457,0.563-0.493,1.187-0.112,1.907c0.003,0.005,0.006,0.011,0.009,0.017c0.029-0.157,0.073-0.315,0.133-0.473
	c0.095-0.251,0.151-0.513,0.169-0.799c0.027-0.415,0.103-0.891,0.442-1.314c-0.182-0.469-0.278-0.938-0.371-1.395
	c-0.116-0.569-0.226-1.107-0.493-1.512c-0.114-0.173-0.147-0.387-0.09-0.586c0.269-0.935,0.757-1.729,1.539-2.5
	c0.147-0.146,0.219-0.393,0.226-0.778c0.021-1.11,0.039-2.069-0.535-2.885c-0.096-0.138-0.148-0.396-0.133-0.562
	c0.01-0.108,0.049-0.284,0.105-0.377c0.366-0.599,0.947-0.753,1.372-0.866c0.141-0.038,0.277-0.074,0.379-0.119
	c0.014-0.047,0.029-0.094,0.043-0.141c0.086-0.277,0.143-0.471,0.135-0.642c-0.158-0.125-0.35-0.338-0.394-0.696
	c-0.009-0.073-0.007-0.147,0.007-0.22c0.001-0.025-0.013-0.122-0.023-0.192c-0.029-0.202-0.074-0.511,0.014-0.846
	c-0.188-0.319-0.175-0.667-0.168-0.82c0.011-0.253,0.005-0.437-0.054-0.58c-0.059-0.142-0.125-0.198-0.139-0.205
	c-0.426,0.127-0.865,0.146-1.252,0.162c-0.216,0.009-0.432,0.017-0.647,0.046c-0.597,0.081-1.168,0.293-1.698,0.511
	c-0.091,0.038-0.187,0.062-0.283,0.073c-0.037,0.141-0.061,0.297-0.086,0.466c-0.052,0.335-0.108,0.706-0.288,1.065
	c0.173,0.822,0.417,1.124,1.162,1.538c0.268,0.148,0.716,0.397,0.903,1.018c0.051,0.171,0.036,0.355-0.042,0.516
	c-0.067,0.136-0.143,0.273-0.22,0.411c-0.142,0.254-0.275,0.494-0.331,0.716c-0.173,0.697-0.527,1.243-0.869,1.771
	c-0.206,0.318-0.4,0.618-0.54,0.932c-0.221,0.498-0.353,0.866-0.367,1.271c0.005,0.219,0.015,0.67-0.396,0.98
	c-0.028,0.021-0.057,0.04-0.087,0.057c0.025,0.05,0.048,0.104,0.068,0.161c0.044,0.126,0.052,0.263,0.022,0.394
	c-0.246,1.073,0.323,1.507,0.509,1.649c0.176,0.134,0.279,0.342,0.279,0.563v1.172c0,0.217-0.099,0.422-0.27,0.557
	c-0.166,0.14-0.267,0.222-0.375,0.289c-0.337,0.209-0.478,0.466-0.502,0.913c-0.005,0.099-0.011,0.2-0.02,0.304
	c0.062-0.101,0.124-0.202,0.185-0.305c0.432-0.716,0.92-1.526,1.819-2.058C3.29,31.968,3.414,31.935,3.539,31.935z"/>
</svg>
