<?xml version="1.0" standalone="no"?>
<!DOCTYPE svg PUBLIC "-//W3C//DTD SVG 20010904//EN"
 "http://www.w3.org/TR/2001/REC-SVG-20010904/DTD/svg10.dtd">
<svg version="1.0" xmlns="http://www.w3.org/2000/svg"
 width="2000.000000pt" height="240.000000pt" viewBox="0 0 2000.000000 240.000000"
 preserveAspectRatio="xMidYMid meet">
<metadata>
Created by potrace 1.13, written by Peter Selinger 2001-2015
</metadata>
<g transform="translate(0.000000,240.000000) scale(0.100000,-0.100000)"
fill="#000000" stroke="none">
<path d="M966 1944 c-381 -92 -515 -583 -233 -858 105 -102 214 -146 367 -146
233 0 435 158 495 385 69 266 -100 549 -370 620 -72 18 -180 18 -259 -1z m114
-48 c0 -33 -2 -34 -47 -41 -55 -7 -143 -45 -189 -80 l-31 -24 -23 24 c-22 23
-22 26 -6 43 39 45 196 110 264 111 30 1 32 -1 32 -33z m137 20 c68 -18 130
-48 170 -83 l33 -28 -21 -24 c-19 -23 -20 -23 -34 -5 -8 10 -15 27 -15 37 0
18 -13 20 -45 8 -12 -5 -34 -1 -60 10 -22 10 -50 19 -62 19 -13 0 -23 5 -23
10 0 6 9 10 20 10 11 0 20 5 20 10 0 11 -39 13 -64 4 -9 -3 -13 -11 -9 -17 3
-6 1 -7 -5 -3 -7 4 -12 20 -12 37 0 25 4 29 28 29 15 0 51 -7 79 -14z m-137
-119 c0 -33 -2 -34 -54 -46 -29 -6 -74 -25 -99 -41 l-45 -28 -23 24 c-22 24
-22 24 -3 39 33 26 112 65 151 74 68 16 73 14 73 -22z m422 -85 c38 -55 78
-164 78 -214 0 -36 -1 -38 -34 -38 -33 0 -34 2 -41 47 -10 66 -40 138 -77 184
l-31 39 23 25 c27 29 35 25 82 -43z m-733 38 l23 -20 -28 -37 c-34 -44 -73
-138 -74 -175 0 -46 -10 -58 -46 -58 -31 0 -34 3 -34 28 0 62 47 184 97 250
28 37 30 38 62 12z m76 -70 c17 -19 17 -21 -9 -60 -14 -22 -31 -61 -37 -87 -7
-27 -13 -54 -15 -60 -2 -8 -19 -13 -39 -13 l-36 0 7 38 c15 82 74 202 100 202
6 0 19 -9 29 -20z m635 -261 c0 -34 -40 -145 -66 -183 -22 -33 -29 -37 -38
-24 -6 8 -19 17 -30 21 -17 7 -17 9 -3 25 16 17 60 107 63 127 1 6 2 19 3 31
1 17 7 20 36 20 25 -1 35 -5 35 -17z m100 -13 c0 -56 -38 -160 -81 -226 l-42
-61 -28 27 c-29 27 -29 28 -10 48 32 35 72 123 83 186 11 59 12 60 45 60 31 0
33 -2 33 -34z m-614 -346 c37 -11 77 -20 90 -20 21 0 24 -5 24 -35 0 -33 -2
-35 -34 -35 -55 0 -157 37 -224 81 l-63 41 26 28 27 28 44 -34 c25 -18 74 -43
110 -54z m464 40 c0 -5 -27 -27 -61 -49 -65 -44 -169 -81 -225 -81 -32 0 -34
2 -34 34 0 32 2 34 43 39 23 3 46 2 52 -4 18 -18 37 -8 103 50 l65 60 29 -20
c15 -11 28 -24 28 -29z"/>
<path d="M2821 1926 c-11 -40 -6 -44 22 -18 13 12 33 22 45 22 21 0 22 -4 22
-100 0 -82 -3 -100 -15 -100 -8 0 -15 -3 -15 -7 0 -5 26 -6 57 -4 32 3 50 6
41 8 -16 4 -18 17 -18 104 0 93 1 99 20 99 12 0 32 -12 45 -26 l25 -27 0 26
c0 51 -6 54 -66 43 -37 -6 -72 -6 -105 0 l-49 11 -9 -31z"/>
<path d="M4641 1926 c-11 -40 -6 -44 22 -18 13 12 33 22 45 22 21 0 22 -4 22
-100 0 -82 -3 -100 -15 -100 -8 0 -15 -3 -15 -7 0 -9 98 -8 107 1 4 3 -1 6
-10 6 -15 0 -17 13 -17 100 0 94 1 100 20 100 12 0 32 -12 45 -26 l25 -27 0
26 c0 51 -6 54 -66 43 -37 -6 -72 -6 -105 0 l-49 11 -9 -31z"/>
<path d="M1890 1939 c0 -4 7 -9 15 -13 12 -4 15 -24 15 -90 0 -79 2 -86 26
-105 35 -28 86 -27 118 2 23 19 27 32 32 110 4 48 11 87 15 87 5 0 9 4 9 8 0
4 -16 6 -36 4 -20 -3 -32 -7 -27 -11 13 -8 24 -105 16 -142 -8 -41 -46 -66
-77 -51 -20 9 -24 20 -30 81 -8 80 -3 108 22 114 9 2 -9 5 -41 8 -31 2 -57 1
-57 -2z"/>
<path d="M2230 1943 c0 -2 10 -13 21 -24 20 -20 21 -28 15 -103 -4 -44 -11
-82 -16 -84 -22 -8 -8 -17 25 -17 40 0 41 1 20 21 -11 11 -15 36 -15 87 l1 72
42 -50 c23 -27 60 -70 83 -94 l41 -44 7 111 c4 62 12 112 17 112 5 0 9 3 9 8
0 4 -16 7 -35 7 -39 0 -42 -3 -19 -19 11 -9 14 -27 12 -75 l-3 -64 -62 75
c-56 69 -65 76 -102 80 -23 2 -41 2 -41 1z"/>
<path d="M3170 1938 c0 -5 7 -8 15 -8 12 0 15 -18 15 -100 0 -82 -3 -100 -15
-100 -8 0 -15 -3 -15 -7 0 -5 44 -7 97 -6 96 1 98 2 104 27 9 31 -1 33 -26 6
-12 -13 -31 -20 -57 -20 l-38 0 0 50 c0 53 14 65 44 35 22 -22 26 -19 26 20 0
36 -13 47 -24 20 -3 -8 -15 -15 -26 -15 -17 0 -20 6 -20 45 0 42 2 45 27 45
15 0 37 -10 50 -22 26 -25 38 -19 30 14 -6 22 -11 23 -97 23 -49 0 -90 -3 -90
-7z"/>
<path d="M3545 1941 c-34 -4 -44 -8 -32 -13 14 -6 17 -21 17 -87 0 -90 -5
-111 -28 -111 -8 0 -12 -3 -9 -7 11 -11 173 -6 196 6 29 16 51 63 51 111 0 52
-42 100 -88 100 -17 0 -36 2 -44 3 -7 2 -35 1 -63 -2z m112 -35 c24 -21 28
-32 28 -76 0 -44 -4 -55 -28 -76 -15 -13 -38 -24 -51 -24 -21 0 -24 5 -28 63
-3 34 -3 79 0 100 3 31 8 37 28 37 12 0 36 -11 51 -24z"/>
<path d="M3950 1943 c0 -2 10 -13 21 -24 20 -20 21 -28 14 -103 -3 -44 -11
-82 -16 -84 -21 -8 -7 -17 26 -17 40 0 41 1 20 21 -11 11 -15 36 -15 87 l1 72
42 -50 c23 -27 60 -70 83 -94 l41 -44 7 109 c4 60 11 111 16 112 22 8 8 17
-25 17 -39 0 -42 -3 -19 -19 11 -9 14 -27 12 -75 l-3 -64 -62 75 c-56 69 -65
76 -102 80 -23 2 -41 2 -41 1z"/>
<path d="M4418 1943 c-10 -2 -18 -11 -18 -18 0 -28 -61 -170 -80 -187 -11 -9
-20 -18 -20 -20 0 -1 18 -3 40 -3 38 0 53 9 29 17 -8 3 -9 15 -4 36 6 29 10
32 45 32 35 0 39 -3 45 -31 5 -22 3 -34 -6 -40 -8 -5 -12 -9 -9 -9 19 -3 110
-4 110 -2 0 2 -9 11 -19 20 -10 10 -33 61 -51 115 -17 53 -35 96 -38 96 -4 -1
-15 -3 -24 -6z"/>
<path d="M5304 1940 c-56 -22 -86 -103 -60 -164 35 -84 178 -88 221 -6 55 106
-49 216 -161 170z m95 -36 c31 -40 36 -87 15 -131 -50 -101 -156 -8 -118 102
21 61 67 74 103 29z"/>
<path d="M5600 1940 c0 -3 9 -11 20 -18 17 -10 20 -23 20 -91 0 -57 -4 -84
-15 -95 -21 -20 -20 -21 20 -20 34 1 65 14 33 14 -11 0 -17 14 -22 46 -8 63
-8 114 2 113 4 0 40 -41 80 -90 40 -49 77 -89 82 -89 6 0 10 43 10 104 0 59 4
108 10 111 19 12 10 20 -25 20 -39 0 -42 -3 -19 -19 11 -9 14 -26 12 -74 l-3
-62 -59 74 c-55 69 -62 74 -103 78 -24 2 -43 1 -43 -2z"/>
<path d="M6012 1934 c-18 -12 -22 -24 -20 -52 2 -29 10 -41 38 -59 62 -39 72
-51 60 -74 -17 -31 -61 -22 -79 16 l-15 30 -7 -35 c-4 -19 -6 -36 -5 -37 1 -2
23 -6 49 -9 65 -9 97 12 97 65 0 41 -14 59 -65 82 -22 10 -30 21 -30 39 0 35
39 40 65 8 l19 -23 1 31 c0 29 -2 30 -42 32 -27 2 -52 -4 -66 -14z"/>
<path d="M1625 1830 c9 -10 26 -49 36 -85 l18 -65 -41 32 c-23 18 -54 45 -70
60 -15 14 -28 21 -28 15 0 -26 48 -87 102 -131 31 -25 59 -51 61 -58 3 -7 6
24 6 70 1 91 -11 126 -55 161 -34 27 -53 27 -29 1z"/>
<path d="M521 1809 c-39 -38 -55 -97 -46 -167 l7 -54 39 38 c21 21 42 34 46
30 5 -4 -7 -21 -25 -37 -18 -16 -44 -45 -56 -64 l-24 -34 -7 93 c-4 64 -3 102
5 118 11 22 11 23 -6 3 -50 -61 -58 -161 -20 -264 l23 -63 13 31 c7 18 25 49
41 70 42 58 71 121 66 142 -3 10 4 26 15 36 22 19 48 65 48 83 0 11 -56 -30
-107 -78 -20 -19 -24 -20 -20 -5 3 10 9 34 12 53 4 19 15 50 26 68 23 40 10
41 -30 1z"/>
<path d="M1730 1726 c5 -14 6 -64 3 -111 l-6 -85 -17 27 c-10 16 -38 48 -64
72 l-46 45 10 -34 c5 -19 35 -70 65 -115 30 -44 55 -89 56 -100 0 -11 11 12
24 50 30 85 32 164 6 221 -21 47 -47 72 -31 30z"/>
<path d="M4932 1680 c-13 -11 -50 -29 -83 -41 -56 -21 -60 -24 -54 -49 6 -26
-102 -326 -225 -622 -59 -145 -95 -188 -155 -188 -31 0 -35 -3 -35 -25 l0 -25
170 0 170 0 0 25 c0 22 -4 25 -40 25 -31 0 -43 5 -56 25 -16 24 -16 30 4 103
12 42 30 100 41 127 l19 50 140 3 141 3 30 -98 c54 -176 57 -193 41 -203 -8
-6 -27 -10 -42 -10 -23 0 -28 -4 -28 -25 l0 -25 210 0 210 0 0 25 c0 22 -4 25
-33 25 -43 0 -72 22 -98 73 -12 22 -81 221 -153 441 -72 220 -136 401 -141
402 -6 2 -20 -5 -33 -16z m-25 -360 l49 -175 -119 -3 c-66 -1 -122 0 -125 2
-4 5 111 335 125 359 11 18 23 -13 70 -183z"/>
<path d="M3298 1663 c-15 -14 -24 -15 -74 -5 -92 19 -212 15 -263 -8 -66 -30
-117 -76 -141 -126 -19 -39 -22 -58 -18 -128 7 -144 51 -187 310 -305 107 -48
123 -69 123 -162 0 -58 -3 -71 -25 -94 -117 -125 -292 -54 -341 139 -9 38 -15
46 -34 46 -26 0 -30 -17 -41 -182 -6 -86 -5 -98 9 -98 9 0 22 9 31 21 l14 21
64 -31 c84 -42 204 -52 292 -27 80 23 157 99 180 176 28 95 18 194 -27 261
-31 47 -132 113 -214 139 -142 46 -183 87 -183 181 0 46 4 55 39 90 39 39 55
44 126 39 17 -1 45 -11 64 -22 33 -21 111 -129 111 -155 0 -14 45 -19 53 -5 3
4 1 52 -5 107 -14 154 -17 162 -50 128z"/>
<path d="M3876 1659 c-66 -16 -153 -69 -211 -130 -220 -231 -158 -642 118
-772 131 -62 305 -62 435 0 60 29 196 155 190 175 -3 7 -11 16 -20 21 -12 8
-24 1 -52 -31 -44 -48 -116 -85 -200 -102 -231 -47 -407 159 -393 460 7 159
57 259 153 306 148 72 323 -5 411 -182 30 -61 40 -74 57 -72 24 3 23 -4 2 208
-10 104 -13 115 -32 118 -14 2 -24 -5 -32 -23 -11 -25 -13 -25 -41 -10 -78 40
-283 58 -385 34z"/>
<path d="M1873 1643 c-11 -28 6 -42 54 -45 41 -3 48 -6 54 -28 4 -14 7 -192 8
-395 1 -276 -2 -374 -11 -383 -7 -7 -34 -12 -60 -12 -45 0 -48 -2 -48 -25 l0
-25 387 2 387 3 18 60 c50 164 49 154 28 165 -15 8 -30 -2 -92 -66 -97 -101
-125 -114 -259 -114 -140 0 -140 0 -150 126 -10 128 -11 272 -1 277 4 2 40 1
80 -3 82 -8 105 -23 133 -87 14 -34 22 -40 38 -36 20 5 21 12 21 159 l0 154
-30 0 c-25 0 -30 -4 -30 -24 0 -36 -42 -90 -80 -103 -19 -7 -59 -12 -87 -12
l-53 -1 0 178 c0 97 4 183 9 191 13 20 192 6 241 -19 20 -10 71 -51 113 -90
52 -48 82 -70 93 -66 17 7 17 12 -19 145 l-22 82 -359 2 c-279 2 -360 -1 -363
-10z"/>
<path d="M5420 1628 c0 -25 3 -27 53 -30 l52 -3 3 -392 c3 -435 4 -423 -64
-423 -30 0 -34 -3 -34 -25 l0 -25 205 0 205 0 0 25 c0 23 -4 25 -43 25 -24 0
-48 5 -55 12 -8 8 -12 60 -12 169 l0 156 114 5 c95 4 123 10 172 32 111 51
156 116 156 227 1 125 -66 217 -187 256 -40 13 -100 16 -307 17 l-258 1 0 -27z
m435 -37 c51 -24 81 -56 100 -110 30 -86 15 -188 -37 -247 -42 -47 -77 -64
-138 -64 l-50 0 0 213 c0 118 3 217 7 220 13 13 78 6 118 -12z"/>
<path d="M1801 1542 c-1 -13 -13 -53 -27 -89 -15 -36 -30 -77 -34 -92 l-8 -26
-1 25 c-1 14 -7 36 -15 50 -71 132 -66 125 -66 93 0 -16 10 -65 21 -109 12
-43 24 -98 28 -122 l6 -43 40 52 c22 29 46 66 53 83 18 42 25 135 13 171 -8
26 -9 27 -10 7z"/>
<path d="M376 1505 c-7 -51 5 -129 26 -169 6 -11 28 -42 50 -69 35 -45 38 -47
38 -23 0 14 11 69 25 122 14 53 25 110 25 127 0 29 -1 28 -27 -19 -14 -27 -34
-69 -44 -94 -10 -25 -18 -38 -19 -29 0 9 -11 42 -25 74 -14 32 -29 74 -34 94
l-8 36 -7 -50z"/>
<path d="M524 1295 c-5 -39 -7 -86 -6 -105 l3 -35 -58 64 c-32 35 -66 78 -75
95 -17 30 -17 30 -18 6 -1 -78 49 -152 150 -219 84 -57 81 -57 65 -9 -8 24
-19 84 -24 133 -5 50 -14 101 -19 115 -8 21 -11 14 -18 -45z"/>
<path d="M1647 1345 c-4 -11 -11 -63 -17 -116 -5 -53 -14 -109 -20 -123 -17
-45 -12 -48 33 -19 117 75 177 154 177 232 l-1 36 -13 -30 c-7 -16 -39 -59
-71 -95 -32 -36 -60 -67 -62 -70 -2 -2 -1 14 2 35 7 48 -18 181 -28 150z"/>
<path d="M583 1207 c4 -9 12 -46 18 -82 6 -36 21 -81 34 -99 l23 -34 -82 43
c-44 23 -98 59 -118 79 -21 20 -38 34 -38 31 0 -20 45 -87 79 -118 49 -44 84
-62 136 -71 22 -4 53 -9 69 -12 l29 -6 -21 33 c-11 19 -32 65 -46 103 -22 58
-100 185 -83 133z"/>
<path d="M1577 1183 c-15 -21 -36 -65 -47 -97 -11 -33 -32 -79 -46 -104 -23
-38 -24 -43 -8 -38 11 3 43 10 72 16 85 16 149 58 194 129 39 62 35 76 -9 33
-21 -19 -72 -53 -113 -76 l-75 -41 23 44 c12 24 22 56 22 70 0 14 4 42 10 60
13 47 8 48 -23 4z"/>
<path d="M717 1007 c19 -35 46 -70 60 -79 24 -14 22 -15 -34 -11 -93 7 -160
23 -189 45 l-27 21 12 -22 c19 -34 87 -79 139 -90 47 -10 163 4 221 26 22 9
21 10 -15 21 -24 7 -70 40 -117 82 -43 38 -79 70 -82 70 -2 0 12 -28 32 -63z"/>
<path d="M1420 1000 c-47 -44 -90 -75 -115 -82 l-39 -12 74 -18 c109 -25 166
-23 228 8 29 14 61 39 73 55 l21 29 -35 -20 c-31 -18 -143 -40 -207 -39 l-25
0 26 14 c24 13 98 136 81 135 -4 -1 -41 -32 -82 -70z"/>
<path d="M870 865 c-93 -37 -126 -41 -183 -21 -51 19 -33 -5 27 -33 77 -38
156 -26 248 37 44 29 88 46 88 33 0 -4 -17 -17 -37 -29 -21 -12 -54 -35 -73
-51 -30 -25 -33 -31 -20 -45 12 -15 18 -13 59 27 25 24 61 54 79 67 32 21 36
22 65 7 18 -8 57 -38 88 -66 51 -45 58 -49 70 -35 12 14 9 20 -16 41 -17 13
-52 37 -80 54 -45 26 -47 29 -23 29 15 0 55 -18 88 -40 97 -62 196 -64 266 -3
20 17 23 22 9 17 -55 -21 -122 -16 -198 15 -73 29 -82 30 -224 30 -145 0 -150
-1 -233 -34z"/>
</g>
</svg>
